<svg width="139" height="48" viewBox="0 0 139 48" fill="none" xmlns="http://www.w3.org/2000/svg">
<path d="M2.32374 11.8472C3.66906 11.8472 4.64748 10.8281 4.64748 9.42697C4.64748 8.0258 3.66906 7.00677 2.32374 7.00677C1.10072 6.87939 0 8.0258 0 9.29959C0 10.7008 1.10072 11.8472 2.32374 11.8472Z" fill="white"/>
<path d="M5.13575 28.4061C4.40194 28.4061 3.91273 28.0239 3.91273 27.2597V16.0504C4.03503 15.6683 3.66813 15.2861 3.30122 15.2861H1.22209C0.855186 15.2861 0.488281 15.6683 0.488281 16.0504V27.6418C0.488281 30.5715 1.9559 31.9727 4.03503 31.9727C4.52424 31.9727 4.89114 31.9727 5.25805 31.8453C5.50265 31.7179 5.62495 31.5905 5.62495 31.3358V29.043C5.74726 28.6608 5.50265 28.4061 5.13575 28.4061Z" fill="white"/>
<path d="M30.2086 15.2861H28.0071C27.6402 15.2861 27.3956 15.5409 27.2733 15.7956L23.9712 26.7501L20.5467 15.923C20.4244 15.6683 20.1798 15.4135 19.8129 15.4135H18.3453C17.9784 15.4135 17.7338 15.6683 17.6115 15.923L14.1871 26.7501L10.8849 15.923C10.8849 15.5409 10.518 15.2861 10.2734 15.2861H8.07197C7.58276 15.2861 7.21586 15.7956 7.33816 16.3052L12.2302 31.3357C12.3525 31.5905 12.5971 31.8452 12.964 31.8452H15.1655C15.5324 31.8452 15.777 31.5905 15.8993 31.3357L19.2014 21.1455L22.5036 31.3357C22.6259 31.5905 22.8705 31.8452 23.2374 31.8452H25.4388C25.8057 31.8452 26.0503 31.5905 26.1726 31.3357L30.9424 16.3052C31.0647 15.7956 30.6978 15.2861 30.2086 15.2861Z" fill="white"/>
<path d="M40.9713 14.9033C36.3238 14.9033 32.6548 18.7247 32.6548 23.5652C32.6548 28.4056 36.3238 32.2271 40.9713 32.2271C45.6188 32.2271 49.2878 28.4056 49.2878 23.5652C49.2878 18.7247 45.6188 14.9033 40.9713 14.9033ZM40.9713 28.7878C38.1584 28.7878 36.2015 26.4949 36.2015 23.5652C36.2015 20.6354 38.1584 18.3426 40.9713 18.3426C43.7842 18.3426 45.7411 20.6354 45.7411 23.5652C45.7411 26.4949 43.6619 28.7878 40.9713 28.7878Z" fill="white"/>
<path d="M59.9273 18.3425C61.6396 18.3425 63.1072 19.2342 63.9633 20.508C64.2079 20.7627 64.5748 20.8901 64.8194 20.7627L66.7762 19.8711C67.0208 19.7437 67.1431 19.4889 67.1431 19.1068C67.1431 18.9794 67.1431 18.852 67.0208 18.7247C67.0208 18.7247 65.064 14.9033 59.9273 14.9033C55.1576 14.9033 51.3662 18.5973 51.3662 23.565C51.3662 28.5328 55.0353 32.2267 59.9273 32.0993C64.8194 32.0993 66.8985 28.278 66.8985 28.278C67.0208 28.1506 67.0208 28.0232 67.0208 27.8959C67.0208 27.6411 66.8985 27.3864 66.5316 27.1316L64.8194 26.3673C64.4525 26.24 64.0856 26.24 63.9633 26.6221C63.1072 27.8959 61.7619 28.7875 60.0496 28.7875C57.2367 28.7875 55.1576 26.3673 55.1576 23.4376C55.0353 20.5079 57.1144 18.3425 59.9273 18.3425Z" fill="white"/>
<path d="M136.122 0H96.0068C94.5392 0 93.4385 1.14643 93.4385 2.67499V44.4559C93.4385 45.9844 94.5392 47.1309 96.0068 47.1309H136.244C137.712 47.1309 138.69 45.9844 138.69 44.4559V2.67499C138.69 1.14643 137.589 0 136.122 0ZM133.431 41.6535H98.8198V5.47737L133.431 5.60475V41.6535Z" fill="white"/>
<path d="M120.345 30.1889L124.625 31.9722C124.992 32.0996 125.359 31.8449 125.359 31.4627V15.4123C125.359 15.0302 124.992 14.7754 124.625 14.9028L120.345 16.8135C120.222 16.9409 120.1 17.0683 120.1 17.3231V29.6793C120.1 29.9341 120.222 30.0615 120.345 30.1889Z" fill="white"/>
<path d="M107.503 32.0997L111.783 30.3163C112.028 30.1889 112.028 30.0615 112.028 29.8068V17.4505C112.028 17.1957 111.906 17.0684 111.783 16.941L107.503 15.0302C107.136 14.9028 106.769 15.1576 106.769 15.5397V31.5901C106.769 31.9723 107.136 32.2271 107.503 32.0997Z" fill="white"/>
<path d="M86.7118 28.4066C85.978 28.4066 85.6111 28.0245 85.4888 27.2602V16.1778C85.4888 15.7956 85.1219 15.4135 84.755 15.4135H82.7982C82.4313 15.4135 82.0643 15.7956 82.0643 16.1778V16.9421C81.0859 15.7956 79.3737 15.1587 77.4169 15.1587C72.7694 15.1587 69.4673 19.1076 69.4673 23.8208C69.4673 28.534 72.7694 32.4829 77.4169 32.4829C79.1291 32.4829 80.8413 32.1008 82.7982 29.9352C83.1651 31.3365 84.2658 32.3555 85.6111 32.3555C86.1003 32.3555 86.4672 32.3555 86.8341 32.2281C87.0787 32.1008 87.201 31.9734 87.201 31.7186V29.4257C87.3233 28.6614 87.0787 28.4066 86.7118 28.4066ZM77.9061 28.9162C75.0932 28.9162 73.014 26.3685 73.2586 23.1839C73.3809 20.2541 75.9493 17.8338 78.7622 18.3433C80.3521 18.5981 81.3305 19.4897 82.0643 20.5088V26.4959C81.2082 27.7697 79.8629 28.7888 77.9061 28.9162Z" fill="white"/>
</svg>
