<svg width="109" height="28" viewBox="0 0 109 28" fill="none" xmlns="http://www.w3.org/2000/svg">
<path d="M65.8239 8.57307C64.0854 8.57307 62.7199 8.94601 61.3536 9.69046C61.3536 5.7165 61.3536 2.11548 61.4784 0.874023L53.1568 2.36363V3.10879L54.0261 3.23287C55.1427 3.48101 55.5171 4.10139 55.7631 5.59243C56.0134 8.57307 55.8879 24.4696 55.7631 27.078C57.9986 27.5751 60.3589 27.948 62.7192 27.948C69.3016 27.948 73.2755 23.8492 73.2755 17.3909C73.2755 12.2996 70.0467 8.57307 65.8239 8.57307ZM62.9673 26.581C62.4703 26.581 61.8485 26.581 61.477 26.4577C61.3522 24.7192 61.2288 17.3909 61.3522 10.9333C62.0974 10.6845 62.5937 10.5604 63.2155 10.5604C65.9494 10.5604 67.4397 13.7892 67.4397 17.7624C67.439 22.7319 65.5757 26.581 62.9673 26.581ZM21.8586 1.37032H0V2.4877L1.24218 2.61178C2.85586 2.85993 3.47766 3.85324 3.7251 6.2128C4.09875 10.6838 3.97396 18.7572 3.7251 22.6056C3.47695 24.9659 2.85658 26.084 1.24218 26.2067L0 26.4562V27.4496H14.034V26.4562L12.5437 26.2067C10.9293 26.0833 10.3082 24.9659 10.0601 22.6056C9.93526 20.9905 9.81119 18.3821 9.81119 15.154L12.7918 15.2781C14.6551 15.2781 15.5236 16.7684 15.8966 18.8791H17.0147V10.0641H15.8966C15.5229 12.1755 14.6551 13.6651 12.7918 13.6651L9.8119 13.7899C9.8119 9.5671 9.93598 5.59314 10.0608 3.23358H14.407C17.7613 3.23358 19.4997 5.34428 20.7412 9.0708L21.9834 8.69786L21.8586 1.37032Z" fill="#4D809E"/>
<path d="M28.9371 8.32426C35.1473 8.32426 38.252 12.5471 38.252 18.1355C38.252 23.4757 34.7743 27.9481 28.5642 27.9481C22.3547 27.9481 19.25 23.7246 19.25 18.1355C19.25 12.7952 22.7269 8.32426 28.9371 8.32426ZM28.5642 9.56644C25.8317 9.56644 25.0865 13.2923 25.0865 18.1355C25.0865 22.8546 26.3287 26.7045 28.813 26.7045C31.6675 26.7045 32.4141 22.9787 32.4141 18.1355C32.4141 13.4163 31.1733 9.56644 28.5642 9.56644ZM74.8883 18.2603C74.8883 13.1682 78.1171 8.32426 84.4513 8.32426C89.666 8.32426 92.1511 12.1749 92.1511 17.2662H80.6007C80.4759 21.8613 82.7114 25.2149 87.1831 25.2149C89.1705 25.2149 90.1638 24.7193 91.4067 23.8494L91.9022 24.4697C90.6601 26.2082 87.9283 27.9481 84.4513 27.9481C78.8623 27.9474 74.8883 23.9734 74.8883 18.2603ZM80.6007 15.9007L86.438 15.7759C86.438 13.2923 86.065 9.56644 83.9543 9.56644C81.8436 9.56644 80.7241 13.0434 80.6007 15.9007ZM106.932 9.31829C105.442 8.69648 103.455 8.32426 101.22 8.32426C96.6257 8.32426 93.7677 11.056 93.7677 14.2856C93.7677 17.5151 95.8769 18.8806 98.8612 19.8747C101.965 20.9913 102.835 21.8613 102.835 23.3516C102.835 24.842 101.717 26.2075 99.7297 26.2075C97.3708 26.2075 95.6309 24.842 94.2654 21.1154L93.3954 21.365L93.5202 26.8293C95.0106 27.4497 97.7423 27.9474 100.103 27.9474C104.947 27.9474 108.052 25.4623 108.052 21.6131C108.052 19.0047 106.685 17.5151 103.456 16.2722C99.9778 14.9067 98.7371 14.0374 98.7371 12.4223C98.7371 10.8079 99.8566 9.68979 101.347 9.68979C103.581 9.68979 105.071 11.056 106.191 14.4096L107.059 14.1615L106.932 9.31829ZM54.3967 8.82127C52.286 7.58053 48.5595 8.20018 46.5729 12.6719L46.6962 8.32497L38.3761 9.93938V10.6845L39.2453 10.8086C40.3641 10.9334 40.8597 11.5538 40.9845 13.1689C41.2326 16.1496 41.1086 21.3664 40.9845 23.9741C40.8597 25.463 40.3641 26.2082 39.2453 26.333L38.3761 26.4578V27.4511H49.9257V26.4578L48.4354 26.333C47.1939 26.2082 46.821 25.463 46.6962 23.9741C46.4481 21.6139 46.4481 16.8947 46.5729 13.9141C47.1932 13.0441 49.9257 12.2997 52.4094 13.9141L54.3967 8.82127Z" fill="#4D809E"/>
</svg>
