<svg width="163" height="116" viewBox="0 0 163 116" fill="none" xmlns="http://www.w3.org/2000/svg">
<path d="M41.8809 13.5776H57.6345V16.5243H51.4402V33.0892H48.034V16.5243H41.8672V13.5776H41.8809ZM56.9615 18.9616H59.8732V21.6879H59.9281C60.0243 21.3024 60.2028 20.9306 60.4638 20.5726C60.7248 20.2146 61.0406 19.8703 61.4115 19.5812C61.7823 19.2783 62.1944 19.0442 62.6476 18.8514C63.1008 18.6724 63.5678 18.576 64.0348 18.576C64.3919 18.576 64.6528 18.5898 64.7902 18.6035C64.9275 18.6173 65.0649 18.6449 65.216 18.6586V21.6604C64.9962 21.6191 64.7765 21.5915 64.543 21.564C64.3095 21.5365 64.0897 21.5227 63.87 21.5227C63.3481 21.5227 62.8536 21.6329 62.3866 21.8394C61.9197 22.0459 61.5214 22.3626 61.178 22.762C60.8346 23.1751 60.5599 23.6708 60.3539 24.2766C60.1479 24.8825 60.0518 25.571 60.0518 26.3558V33.0754H56.9477V18.9616H56.9615ZM79.4862 33.0892H76.4371V31.1201H76.3822C75.9976 31.8361 75.4345 32.4007 74.6791 32.8275C73.9237 33.2544 73.1545 33.4747 72.3717 33.4747C70.5175 33.4747 69.1715 33.0203 68.3474 32.0978C67.5234 31.1752 67.1113 29.7845 67.1113 27.9256V18.9616H70.2153V27.6226C70.2153 28.8619 70.4488 29.7432 70.9295 30.2526C71.3965 30.7621 72.0695 31.0237 72.921 31.0237C73.5803 31.0237 74.116 30.9273 74.5555 30.7208C74.995 30.5143 75.3521 30.2526 75.613 29.9084C75.8877 29.5779 76.08 29.1648 76.2036 28.6967C76.3272 28.2285 76.3822 27.719 76.3822 27.1682V18.9753H79.4862V33.0892ZM84.774 28.559C84.8701 29.4678 85.2135 30.1012 85.8041 30.4729C86.4084 30.831 87.1226 31.0237 87.9604 31.0237C88.2488 31.0237 88.5785 30.9962 88.9493 30.9549C89.3201 30.9136 89.6772 30.8172 89.9931 30.6933C90.3228 30.5693 90.5837 30.3766 90.8035 30.1287C91.0095 29.8808 91.1056 29.5641 91.0919 29.1648C91.0782 28.7655 90.9271 28.435 90.6524 28.1872C90.3777 27.9256 90.0343 27.7328 89.6086 27.5676C89.1828 27.4161 88.7021 27.2784 88.1527 27.1682C87.6033 27.0581 87.0539 26.9342 86.4908 26.8102C85.914 26.6863 85.3508 26.5211 84.8152 26.3421C84.2795 26.1631 83.7988 25.9152 83.3731 25.5985C82.9473 25.2956 82.6039 24.8963 82.3567 24.4143C82.0957 23.9324 81.9721 23.3403 81.9721 22.6243C81.9721 21.8532 82.1644 21.2198 82.5353 20.6965C82.9061 20.1733 83.3868 19.7602 83.9499 19.4435C84.5268 19.1268 85.1586 18.9065 85.859 18.7688C86.5595 18.6449 87.2325 18.576 87.8643 18.576C88.5922 18.576 89.2927 18.6586 89.9519 18.8101C90.6112 18.9616 91.2155 19.2094 91.7512 19.5674C92.2868 19.9117 92.7263 20.3661 93.0834 20.9168C93.4405 21.4676 93.6603 22.1423 93.7564 22.9272H90.515C90.364 22.1836 90.0343 21.6742 89.4987 21.4263C88.963 21.1647 88.345 21.0408 87.6582 21.0408C87.4385 21.0408 87.1775 21.0545 86.8754 21.0958C86.5732 21.1372 86.2985 21.206 86.0238 21.3024C85.7629 21.3988 85.5431 21.5502 85.3508 21.743C85.1723 21.9358 85.0761 22.1836 85.0761 22.5003C85.0761 22.8859 85.2135 23.1888 85.4745 23.4229C85.7354 23.657 86.0788 23.8498 86.5045 24.015C86.9303 24.1665 87.411 24.3042 87.9604 24.4143C88.5098 24.5245 89.0729 24.6484 89.6498 24.7723C90.2129 24.8963 90.7623 25.0615 91.3116 25.2405C91.861 25.4195 92.3417 25.6674 92.7675 25.9841C93.1933 26.3008 93.5366 26.6863 93.7976 27.1545C94.0586 27.6226 94.1959 28.2147 94.1959 28.9032C94.1959 29.7432 94.0036 30.4454 93.6191 31.0375C93.2345 31.6158 92.74 32.0978 92.1357 32.4558C91.5314 32.8138 90.8447 33.0892 90.103 33.2544C89.3613 33.4196 88.6197 33.5023 87.8917 33.5023C86.999 33.5023 86.1749 33.4059 85.4195 33.1993C84.6641 32.9928 84.0049 32.6898 83.4555 32.2905C82.9061 31.8774 82.4666 31.368 82.1507 30.7621C81.8348 30.1562 81.67 29.4265 81.6425 28.5865H84.774V28.559ZM95.02 18.9616H97.3686V14.7205H100.473V18.9616H103.274V21.2886H100.473V28.8344C100.473 29.1648 100.486 29.4402 100.514 29.6881C100.541 29.9222 100.61 30.1287 100.706 30.2939C100.802 30.4592 100.953 30.5831 101.159 30.6657C101.365 30.7483 101.626 30.7896 101.983 30.7896C102.203 30.7896 102.423 30.7896 102.643 30.7759C102.862 30.7621 103.082 30.7346 103.302 30.6795V33.0892C102.959 33.1305 102.615 33.158 102.299 33.1993C101.97 33.2406 101.64 33.2544 101.297 33.2544C100.473 33.2544 99.8133 33.1718 99.3189 33.0203C98.8245 32.8689 98.4262 32.6348 98.1515 32.3318C97.863 32.0289 97.6845 31.6571 97.5746 31.2027C97.4785 30.7483 97.4098 30.2251 97.3961 29.6468V21.3162H95.0474V18.9616H95.02ZM105.472 18.9616H108.411V20.8755H108.466C108.906 20.0494 109.51 19.471 110.293 19.113C111.076 18.755 111.913 18.576 112.834 18.576C113.946 18.576 114.908 18.7688 115.732 19.1681C116.556 19.5536 117.243 20.0907 117.792 20.7791C118.341 21.4676 118.74 22.2663 119.014 23.1751C119.289 24.0838 119.426 25.0615 119.426 26.0942C119.426 27.0443 119.303 27.9669 119.055 28.8481C118.808 29.7432 118.437 30.528 117.943 31.2165C117.449 31.905 116.817 32.442 116.048 32.8551C115.278 33.2682 114.386 33.4747 113.342 33.4747C112.889 33.4747 112.435 33.4334 111.982 33.3508C111.529 33.2682 111.089 33.1305 110.677 32.9515C110.265 32.7725 109.867 32.5384 109.524 32.2492C109.167 31.9601 108.878 31.6296 108.631 31.2578H108.576V38.3078H105.472V18.9616ZM116.322 26.0391C116.322 25.4057 116.24 24.7861 116.075 24.1802C115.91 23.5744 115.663 23.0511 115.333 22.583C115.004 22.1148 114.592 21.743 114.111 21.4676C113.617 21.1922 113.053 21.0408 112.422 21.0408C111.117 21.0408 110.128 21.4952 109.469 22.404C108.809 23.3127 108.48 24.5245 108.48 26.0391C108.48 26.7552 108.562 27.4161 108.741 28.022C108.919 28.6278 109.167 29.1511 109.524 29.5917C109.867 30.0323 110.279 30.3766 110.76 30.6244C111.241 30.886 111.804 31.01 112.435 31.01C113.15 31.01 113.74 30.8585 114.235 30.5693C114.729 30.2802 115.127 29.8946 115.443 29.4402C115.759 28.9721 115.993 28.4488 116.13 27.8567C116.254 27.2646 116.322 26.6588 116.322 26.0391ZM121.802 13.5776H124.906V16.5243H121.802V13.5776ZM121.802 18.9616H124.906V33.0892H121.802V18.9616ZM127.681 13.5776H130.785V33.0892H127.681V13.5776ZM140.303 33.4747C139.177 33.4747 138.174 33.2819 137.295 32.9102C136.416 32.5384 135.674 32.0151 135.056 31.368C134.452 30.707 133.985 29.9222 133.669 29.0134C133.353 28.1046 133.188 27.0994 133.188 26.0116C133.188 24.9376 133.353 23.9461 133.669 23.0374C133.985 22.1286 134.452 21.3437 135.056 20.6828C135.661 20.0218 136.416 19.5123 137.295 19.1406C138.174 18.7688 139.177 18.576 140.303 18.576C141.429 18.576 142.432 18.7688 143.311 19.1406C144.19 19.5123 144.931 20.0356 145.549 20.6828C146.154 21.3437 146.621 22.1286 146.937 23.0374C147.253 23.9461 147.417 24.9376 147.417 26.0116C147.417 27.0994 147.253 28.1046 146.937 29.0134C146.621 29.9222 146.154 30.707 145.549 31.368C144.945 32.0289 144.19 32.5384 143.311 32.9102C142.432 33.2819 141.429 33.4747 140.303 33.4747ZM140.303 31.01C140.99 31.01 141.594 30.8585 142.102 30.5693C142.61 30.2802 143.022 29.8946 143.352 29.4265C143.682 28.9583 143.915 28.4213 144.08 27.8292C144.231 27.2371 144.313 26.6312 144.313 26.0116C144.313 25.4057 144.231 24.8136 144.08 24.2078C143.929 23.6019 143.682 23.0787 143.352 22.6105C143.022 22.1423 142.61 21.7706 142.102 21.4814C141.594 21.1922 140.99 21.0408 140.303 21.0408C139.616 21.0408 139.012 21.1922 138.504 21.4814C137.995 21.7706 137.583 22.1561 137.254 22.6105C136.924 23.0787 136.691 23.6019 136.526 24.2078C136.375 24.8136 136.292 25.4057 136.292 26.0116C136.292 26.6312 136.375 27.2371 136.526 27.8292C136.677 28.4213 136.924 28.9583 137.254 29.4265C137.583 29.8946 137.995 30.2802 138.504 30.5693C139.012 30.8723 139.616 31.01 140.303 31.01ZM148.324 18.9616H150.672V14.7205H153.776V18.9616H156.578V21.2886H153.776V28.8344C153.776 29.1648 153.79 29.4402 153.818 29.6881C153.845 29.9222 153.914 30.1287 154.01 30.2939C154.106 30.4592 154.257 30.5831 154.463 30.6657C154.669 30.7483 154.93 30.7896 155.287 30.7896C155.507 30.7896 155.727 30.7896 155.947 30.7759C156.166 30.7621 156.386 30.7346 156.606 30.6795V33.0892C156.262 33.1305 155.919 33.158 155.603 33.1993C155.274 33.2406 154.944 33.2544 154.601 33.2544C153.776 33.2544 153.117 33.1718 152.623 33.0203C152.128 32.8689 151.73 32.6348 151.455 32.3318C151.167 32.0289 150.988 31.6571 150.878 31.2027C150.782 30.7483 150.714 30.2251 150.7 29.6468V21.3162H148.351V18.9616H148.324Z" fill="black" fill-opacity="0.87"/>
<path d="M38.2463 13.5768H24.0173L19.6222 0L15.2134 13.5768L0.984375 13.5631L12.5077 21.9625L8.09889 35.5256L19.6222 27.1399L31.1318 35.5256L26.7367 21.9625L38.2463 13.5768Z" fill="#00B67A"/>
<path d="M27.722 25.0318L26.7332 21.9612L19.6187 27.1386L27.722 25.0318Z" fill="#005128"/>
<path d="M9.11572 46.136H36.7144V73.43H9.11572V46.136Z" fill="#00B67A"/>
<path d="M22.9366 64.5945L27.1266 63.4986L28.8927 68.8752L22.9366 64.5945ZM32.5979 57.6426H25.1874L22.902 50.6907L20.6165 57.6426H13.2061L19.1967 61.9576L16.9113 68.9095L22.902 64.6287L26.6072 61.9576L32.5979 57.6426Z" fill="white"/>
<path d="M38.9448 46.1357H66.5435V73.4297H38.9448V46.1357Z" fill="#00B67A"/>
<path d="M52.7701 64.5945L56.9601 63.4986L58.7261 68.8752L52.7701 64.5945ZM62.4314 57.6426H55.0209L52.7355 50.6907L50.45 57.6426H43.0396L49.0302 61.9576L46.7448 68.9095L52.7355 64.6287L56.4407 61.9576L62.4314 57.6426Z" fill="white"/>
<path d="M68.7646 46.1357H96.3634V73.4297H68.7646V46.1357Z" fill="#00B67A"/>
<path d="M82.5899 64.5945L86.7799 63.4986L88.546 68.8752L82.5899 64.5945ZM92.2512 57.6426H84.8408L82.5553 50.6907L80.2698 57.6426H72.8594L78.8501 61.9576L76.5646 68.9095L82.5553 64.6287L86.2605 61.9576L92.2512 57.6426Z" fill="white"/>
<path d="M98.5977 46.1357H126.196V73.4297H98.5977V46.1357Z" fill="#00B67A"/>
<path d="M112.408 64.5945L116.598 63.4986L118.364 68.8752L112.408 64.5945ZM122.07 57.6426H114.659L112.374 50.6907L110.088 57.6426H102.678L108.668 61.9576L106.383 68.9095L112.374 64.6287L116.079 61.9576L122.07 57.6426Z" fill="white"/>
<path d="M128.432 46.1357H156.031V73.4297H128.432V46.1357Z" fill="#00B67A"/>
<path d="M142.243 64.5945L146.433 63.4986L148.199 68.8752L142.243 64.5945ZM151.904 57.6426H144.494L142.208 50.6907L139.923 57.6426H132.512L138.503 61.9576L136.217 68.9095L142.208 64.6287L145.913 61.9576L151.904 57.6426Z" fill="white"/>
<path d="M12.7095 108H15.1143L18.1132 103.926C18.863 102.879 19.2874 102.271 19.2874 101.252C19.2874 99.3002 17.9152 97.7866 15.7791 97.7866C13.6431 97.7866 12.2709 99.3002 12.2709 101.252C12.2709 103.233 13.8411 104.421 15.2982 104.463L12.7095 108ZM15.7791 102.808C14.888 102.808 14.2231 102.087 14.2231 101.224C14.2231 100.333 14.8738 99.6539 15.7791 99.6539C16.6845 99.6539 17.3352 100.347 17.3352 101.224C17.3352 102.087 16.6845 102.808 15.7791 102.808ZM21.9606 108V105.638H19.5982V108H21.9606ZM26.7462 108.156C28.8964 108.156 30.2544 106.642 30.2544 104.69C30.2544 102.709 28.6842 101.549 27.213 101.479L29.8017 97.9563H27.411L24.4121 102.016C23.6623 103.063 23.2521 103.671 23.2521 104.69C23.2521 106.642 24.6101 108.156 26.7462 108.156ZM26.7462 106.288C25.8408 106.288 25.2043 105.595 25.2043 104.718C25.2043 103.855 25.8408 103.134 26.7462 103.134C27.6515 103.134 28.3022 103.855 28.3022 104.718C28.3022 105.595 27.6515 106.288 26.7462 106.288ZM35.1471 108H37.1983V103.77H37.6934L41.145 108H43.6206L40.0134 103.544C41.3572 103.134 42.0787 102.285 42.0787 100.927C42.0787 99.2578 40.8621 97.9563 38.9948 97.9563H35.1471V108ZM37.1983 102.016V99.8378H38.7544C39.5324 99.8378 40.0417 100.234 40.0417 100.927C40.0417 101.606 39.5324 102.016 38.7544 102.016H37.1983ZM46.984 108.156C47.7621 108.156 48.3845 107.887 48.7947 107.477V108H50.7327V100.927H48.7947V101.436C48.3845 101.04 47.7621 100.771 46.984 100.771C44.8904 100.771 43.49 102.483 43.49 104.463C43.49 106.444 44.8904 108.156 46.984 108.156ZM47.2669 106.387C46.206 106.387 45.4987 105.51 45.4987 104.463C45.4987 103.417 46.206 102.54 47.2669 102.54C48.0167 102.54 48.4694 102.865 48.7947 103.304V105.609C48.4694 106.062 48.0167 106.387 47.2669 106.387ZM56.3247 108.085C57.0461 108.085 57.81 107.859 58.1495 107.675L57.5695 106.09C57.3574 106.203 56.9754 106.331 56.5935 106.331C55.872 106.331 55.5184 106.005 55.5184 105.143V102.625H57.6544V100.927H55.5184V98.8051H53.5804V100.927H51.8687V102.625H53.5804V105.524C53.5804 107.264 54.7403 108.085 56.3247 108.085ZM60.1281 100.05C60.8213 100.05 61.3729 99.4982 61.3729 98.8192C61.3729 98.1402 60.8213 97.5885 60.1281 97.5885C59.4632 97.5885 58.8974 98.1402 58.8974 98.8192C58.8974 99.4982 59.4632 100.05 60.1281 100.05ZM59.1662 108H61.1042V100.927H59.1662V108ZM62.9651 108H64.9031V103.346C65.2002 102.879 65.7378 102.54 66.4026 102.54C67.2938 102.54 67.7182 103.205 67.7182 104.223V108H69.6562V103.898C69.6562 102.03 68.6094 100.771 66.827 100.771C66.0348 100.771 65.3558 101.026 64.9031 101.521V100.927H62.9651V108ZM74.5738 110.886C76.3562 110.886 78.2801 110.094 78.2801 107.604V100.927H76.3421V101.436C75.9318 101.04 75.3094 100.771 74.5172 100.771C72.4944 100.771 70.9807 102.342 70.9807 104.322C70.9807 106.302 72.4661 107.859 74.5172 107.859C75.3094 107.859 75.9318 107.59 76.3421 107.18V107.618C76.3421 108.707 75.3943 109.188 74.5455 109.188C73.8241 109.188 73.1168 108.962 72.5085 108.453L71.4476 109.896C72.2397 110.575 73.3997 110.886 74.5738 110.886ZM74.8143 106.104C73.7534 106.104 72.9895 105.355 72.9895 104.322C72.9895 103.261 73.7534 102.54 74.8143 102.54C75.564 102.54 76.0167 102.865 76.3421 103.304V105.312C76.0167 105.765 75.564 106.104 74.8143 106.104ZM88.4834 105.652C89.5444 105.652 90.4214 104.803 90.4214 103.728C90.4214 102.653 89.5444 101.804 88.4834 101.804C87.4366 101.804 86.5596 102.653 86.5596 103.728C86.5596 104.803 87.4366 105.652 88.4834 105.652Z" fill="black"/>
<path d="M98.8732 108H105.126V106.048H100.924V103.926H104.277V101.974H100.924V99.9085H105.126V97.9563H98.8732V108ZM111.454 108H113.774L111.03 104.534L113.703 100.927H111.398L109.799 103.091L108.201 100.927H105.909L108.582 104.534L105.838 108H108.172L109.813 105.921L111.454 108ZM117.637 108.156C119.108 108.156 120.381 107.321 120.99 106.119L119.306 105.213C119.023 105.878 118.429 106.345 117.637 106.345C116.619 106.345 115.841 105.553 115.841 104.463C115.841 103.374 116.619 102.582 117.637 102.582C118.429 102.582 119.023 103.049 119.306 103.714L120.99 102.808C120.381 101.606 119.108 100.771 117.637 100.771C115.544 100.771 113.888 102.327 113.888 104.463C113.888 106.6 115.544 108.156 117.637 108.156ZM125.525 108.156C127.011 108.156 128.142 107.533 128.807 106.571L127.364 105.496C127.039 105.991 126.431 106.387 125.539 106.387C124.606 106.387 123.771 105.864 123.658 104.916H128.949C128.991 104.619 128.977 104.421 128.977 104.251C128.977 101.946 127.35 100.771 125.497 100.771C123.347 100.771 121.777 102.37 121.777 104.463C121.777 106.699 123.417 108.156 125.525 108.156ZM123.729 103.601C123.913 102.738 124.719 102.37 125.44 102.37C126.162 102.37 126.869 102.752 127.039 103.601H123.729ZM130.407 108H132.345V97.6734H130.407V108ZM134.206 108H136.144V97.6734H134.206V108ZM141.301 108.156C142.787 108.156 143.918 107.533 144.583 106.571L143.14 105.496C142.815 105.991 142.207 106.387 141.315 106.387C140.382 106.387 139.547 105.864 139.434 104.916H144.725C144.767 104.619 144.753 104.421 144.753 104.251C144.753 101.946 143.126 100.771 141.273 100.771C139.123 100.771 137.553 102.37 137.553 104.463C137.553 106.699 139.194 108.156 141.301 108.156ZM139.505 103.601C139.689 102.738 140.495 102.37 141.216 102.37C141.938 102.37 142.645 102.752 142.815 103.601H139.505ZM146.183 108H148.121V103.346C148.419 102.879 148.956 102.54 149.621 102.54C150.512 102.54 150.937 103.205 150.937 104.223V108H152.875V103.898C152.875 102.03 151.828 100.771 150.045 100.771C149.253 100.771 148.574 101.026 148.121 101.521V100.927H146.183V108ZM158.262 108.085C158.983 108.085 159.747 107.859 160.086 107.675L159.506 106.09C159.294 106.203 158.912 106.331 158.53 106.331C157.809 106.331 157.455 106.005 157.455 105.143V102.625H159.591V100.927H157.455V98.8051H155.517V100.927H153.806V102.625H155.517V105.524C155.517 107.264 156.677 108.085 158.262 108.085Z" fill="#00B67A"/>
</svg>
