<svg width="189" height="23" fill="none" xmlns="http://www.w3.org/2000/svg"><path d="M69.286 15.48c-.392-1.085-.59-2.392-.59-3.883 0-1.49.198-2.797.59-3.883.393-1.089.94-1.99 1.642-2.7a6.587 6.587 0 012.47-1.583 8.884 8.884 0 013.046-.513c1.105 0 2.129.172 3.075.513.944.343 1.768.87 2.47 1.584.703.71 1.25 1.613 1.643 2.703.394 1.09.59 2.385.59 3.881s-.196 2.788-.59 3.88c-.393 1.091-.94 1.992-1.642 2.704a6.692 6.692 0 01-2.47 1.581c-.947.344-1.971.515-3.076.515a8.854 8.854 0 01-3.046-.514 6.527 6.527 0 01-2.968-2.15 7.774 7.774 0 01-1.144-2.134zm14.8-11.02a9.19 9.19 0 00-2.41-1.541 10.615 10.615 0 00-.94-.364c-1.298-.436-2.73-.654-4.292-.654-1.54 0-2.96.218-4.26.654a9.667 9.667 0 00-.491.178c-1.09.424-2.04 1-2.852 1.725a8.598 8.598 0 00-2.174 3.061c-.517 1.205-.775 2.58-.775 4.12 0 1.542.258 2.916.775 4.122.518 1.206 1.241 2.226 2.174 3.06.93.834 2.045 1.456 3.343 1.863 1.3.409 2.72.613 4.26.613 1.563 0 2.994-.204 4.291-.613.102-.032.201-.069.301-.102a9.145 9.145 0 002.377-1.225 8.1 8.1 0 00.673-.541 8.63 8.63 0 002.172-3.059c.514-1.2.776-2.586.776-4.118 0-1.533-.262-2.92-.776-4.12a8.648 8.648 0 00-2.172-3.059zM62.097 11.63c0 1.327-.16 2.475-.482 3.442-.323.968-.77 1.768-1.345 2.4a5.347 5.347 0 01-2.023 1.403 6.824 6.824 0 01-2.516.455 6.75 6.75 0 01-2.494-.455 5.335 5.335 0 01-2.022-1.404c-.575-.631-1.024-1.431-1.345-2.399-.321-.967-.483-2.115-.483-3.442s.162-2.475.483-3.444c.321-.967.77-1.767 1.345-2.398a5.319 5.319 0 012.022-1.404 6.751 6.751 0 012.494-.456c.903 0 1.742.153 2.516.457a5.33 5.33 0 012.023 1.403c.574.63 1.022 1.43 1.345 2.398.321.969.482 2.117.482 3.444zm2.775-.209c-.023-1.294-.238-2.456-.663-3.48a7.73 7.73 0 00-1.832-2.688c-.016-.015-.03-.033-.047-.049l-.001-.001c-.807-.746-1.772-1.315-2.894-1.704-1.124-.39-2.363-.584-3.713-.584-1.336 0-2.565.195-3.688.584-1.124.389-2.089.958-2.894 1.704a7.685 7.685 0 00-1.881 2.738c-.447 1.08-.672 2.309-.672 3.689 0 1.378.224 2.608.672 3.687.447 1.08 1.075 1.993 1.88 2.739.806.746 1.771 1.302 2.895 1.667 1.123.366 2.352.549 3.688.549 1.35 0 2.59-.183 3.713-.55 1.122-.364 2.087-.92 2.894-1.666.805-.746 1.432-1.66 1.88-2.74.447-1.078.672-2.308.672-3.686v-.002c0-.07-.008-.137-.01-.207z" fill="#4D809E"/><mask id="a" maskUnits="userSpaceOnUse" x="0" y="0" width="18" height="23"><path d="M.647.874h16.971v21.431H.647V.874z" fill="#4D809E"/></mask><g mask="url(#a)"><path d="M13.53 7.575c.603-1.045 1.476-2.49 2.003-3.387a56.047 56.047 0 011.525-2.46c.224-.338.382-.573.56-.853 0 0-.003 0-.004.002l.004-.002c-.044.012-.102.025-.157.039a5.356 5.356 0 01-.686.117 5.374 5.374 0 01-.439.027c-.043.002-.083.006-.126.006-.493 0-.974-.066-1.412-.19-1.242 2.228-5.45 9.037-5.665 9.433-.217-.396-4.424-7.2-5.665-9.43L3.465.88l.003-.001a5.859 5.859 0 01-.552.12 5.773 5.773 0 01-.353.045c-.024.002-.048.002-.073.003-.135.011-.278.019-.435.019-.08 0-.153-.005-.23-.008a4.738 4.738 0 01-.354-.026c-.054-.005-.111-.01-.164-.017A5.686 5.686 0 01.78.908L.647.874c.178.28.336.517.56.854.286.43.846 1.308 1.525 2.46.527.896 1.399 2.342 2.003 3.386.603 1.044 1.24 2.145 1.845 3.204.76 1.33 1.214 2.132 1.36 2.387v.811c0 1.091-.02 2.266-.062 3.323-.041 1.053-.088 3.97-.138 5.006.438-.123.906-.19 1.39-.19.485 0 .959.067 1.396.19-.049-1.037-.094-3.948-.136-5.001a88.362 88.362 0 01-.062-3.324v-.815c.446-.787.9-1.587 1.357-2.387.606-1.059 1.241-2.16 1.845-3.203z" fill="#4D809E"/></g><path d="M21.79 13.992c-.56 0-2.5-.05-3.031-.076 1.373-3.453 2.848-7.212 3.03-7.943.183.731 1.65 4.49 3.024 7.943-.53.024-2.466.076-3.023.076zM22.928 3.51c-.06-.15-.114-.288-.154-.395l-.018.009c-.3.117-.62.176-.972.176a2.675 2.675 0 01-.986-.184c.003 0 .005.002.008.003a.033.033 0 00-.009-.004c-.038.107-.095.245-.153.395-1.122 2.853-5.027 12.54-6.863 16.05l-.262.507a5.223 5.223 0 011.415-.188c.488 0 .951.063 1.391.188l-.012-.009.012.009c.152-.401.996-2.5 1.979-4.967h.001c.421-.013.901-.03 1.32-.036.551-.008 1.6-.011 2.148-.011h.037c.535 0 1.592.004 2.143.011.419.007.893.024 1.314.036.983 2.467 1.83 4.567 1.98 4.967h.002l.013-.01h.002l-.015.01a5.09 5.09 0 011.394-.188c.496 0 .964.063 1.408.188-.041-.084-.18-.353-.259-.505-1.836-3.512-5.742-13.199-6.864-16.052zM45.554 13.77V9.556c0-1.077.02-2.134.061-3.17.04-1.037.078-2.194.127-3.271-.444.126-.908.189-1.406.189-.492 0-.968-.063-1.411-.191h-.001l.001.018c.05 1.128.104 2.267.145 3.27.04 1.024.061 2.085.061 3.155l.004 1.463h-.006l-2.156.041a131.886 131.886 0 01-5.123 0l-2.167-.041.006-1.463c0-1.07.02-2.131.06-3.155.04-1.003.094-2.16.145-3.289-.441.127-.91.192-1.402.192a5.18 5.18 0 01-1.415-.188c.048 1.076.085 2.233.126 3.27.041 1.036.061 2.093.061 3.17v4.214c0 1.078-.02 2.139-.06 3.185a357.235 357.235 0 01-.136 3.107l.02-.012h.002l-.022.012c.444-.125.918-.19 1.417-.19.492 0 .958.064 1.403.19-.051-1.033-.097-2.114-.136-3.124a82.532 82.532 0 01-.06-3.168l-.003-1.587a268.714 268.714 0 019.436 0h.006v1.587c0 1.071-.022 2.136-.061 3.168-.04 1.01-.089 2.091-.138 3.125a5.11 5.11 0 011.409-.191c.5 0 .966.065 1.41.19-.05-1.012-.095-2.064-.136-3.107a79.74 79.74 0 01-.061-3.185zM93.233 2.1l-.002-.004-.001-.005a1.224 1.224 0 00-.066-.189c-.007-.015-.01-.033-.018-.049a1.098 1.098 0 00-.105-.17c-.01-.014-.016-.029-.027-.042l-.001-.001-.001-.003a1.23 1.23 0 00-.396-.324 1.752 1.752 0 00-.433-.147c-.018-.004-.032-.014-.05-.017l-.063-.012h-.001a1.7 1.7 0 00-.576 0 1.241 1.241 0 00-.477.188 1.086 1.086 0 00-.182.153l-.01.008c-.023.025-.04.055-.063.082-.031.04-.066.077-.094.122l-.001.003-.002.001a1.486 1.486 0 00-.19.542c0 .01-.009.063-.01.081l-.027.224-.562 6.632c-.378 4.626-.857 7.565-.943 8.397.165-.024.34-.022.525.007h.001c.185.03.353.08.501.154.176-.819.632-3.76 1.706-8.275.297-1.264 1.548-6.618 1.553-6.638.008-.031.016-.077.027-.145.035-.209.03-.4-.012-.574zM90.075 20.164a1.268 1.268 0 00-.4-.327 1.713 1.713 0 00-.548-.178c-.1-.016-.2-.023-.294-.023-.095 0-.19.007-.278.023a1.19 1.19 0 00-.83.559 1.474 1.474 0 00-.191.544c-.034.209-.03.402.013.575.04.173.114.328.218.46.104.131.237.24.397.321.16.083.346.14.549.17a1.914 1.914 0 00.575.007c.178-.028.338-.09.48-.183.137-.093.254-.217.349-.37.094-.151.158-.334.19-.543a1.488 1.488 0 00-.012-.575 1.2 1.2 0 00-.218-.46zM110.17 5.06v1.115h-6.22v4.33h5.481v1.123h-5.481v6.55h-3.225V5.06h9.445z" fill="#4D809E"/><mask id="b" maskUnits="userSpaceOnUse" x="0" y="0" width="189" height="23"><path d="M.647 22.315H189V.874H.647v21.44z" fill="#4D809E"/></mask><g mask="url(#b)"><path d="M112.989 18.177h3.225V5.06h-3.225v13.117z" fill="#4D809E"/></g><mask id="c" maskUnits="userSpaceOnUse" x="0" y="0" width="189" height="23"><path d="M.647 22.315H189V.874H.647v21.44z" fill="#4D809E"/></mask><g mask="url(#c)"><path d="M119.587 5.06h2.061l7.504 8.346V5.061h2.024V18.38h-1.395l-8.151-9.211v9.008h-2.043V5.061z" fill="#4D809E"/></g><mask id="d" maskUnits="userSpaceOnUse" x="0" y="0" width="189" height="23"><path d="M.647 22.315H189V.874H.647v21.44z" fill="#4D809E"/></mask><g mask="url(#d)"><path d="M137.331 13.37h3.965l-1.95-4.238-2.015 4.237zm3.29-8.595l6.164 13.403h-3.299l-1.646-3.584h-5.11l-1.728 3.584h-2.199l6.423-13.403h1.395z" fill="#4D809E"/></g><mask id="e" maskUnits="userSpaceOnUse" x="0" y="0" width="189" height="23"><path d="M.647 22.315H189V.874H.647v21.44z" fill="#4D809E"/></mask><g mask="url(#e)"><path d="M148.412 5.06h2.061l7.504 8.346V5.061h2.024V18.38h-1.395l-8.151-9.211v9.008h-2.043V5.061z" fill="#4D809E"/></g><mask id="f" maskUnits="userSpaceOnUse" x="0" y="0" width="189" height="23"><path d="M.647 22.315H189V.874H.647v21.44z" fill="#4D809E"/></mask><g mask="url(#f)"><path d="M166.266 11.61c0 .847.129 1.597.389 2.248.259.65.602 1.197 1.03 1.639.429.442.922.777 1.48 1.004a4.538 4.538 0 001.731.341c.463 0 .893-.08 1.289-.24a4.69 4.69 0 001.119-.64c.349-.267.673-.577.975-.93.301-.353.591-.726.868-1.119l1.35.986c-.29.466-.639.914-1.049 1.344-.41.43-.87.811-1.382 1.142a7.052 7.052 0 01-1.672.793 6.16 6.16 0 01-1.913.295c-1.133 0-2.177-.165-3.129-.494-.951-.328-1.774-.793-2.467-1.395a6.37 6.37 0 01-1.622-2.165c-.388-.841-.582-1.777-.582-2.809 0-.663.083-1.294.25-1.893a6.509 6.509 0 01.716-1.663c.311-.51.691-.968 1.141-1.377a7 7 0 011.519-1.045 7.947 7.947 0 011.854-.663 9.547 9.547 0 012.134-.23 7.74 7.74 0 012.084.262c.633.175 1.206.42 1.72.737a6.54 6.54 0 011.377 1.128 8.59 8.59 0 011.067 1.428l-1.368.949a10.528 10.528 0 00-.9-1.11 6.705 6.705 0 00-1.04-.912 5.152 5.152 0 00-1.165-.622 3.581 3.581 0 00-1.275-.23c-.604 0-1.18.113-1.729.341a4.155 4.155 0 00-1.446 1.003c-.416.443-.746.99-.989 1.64-.243.65-.365 1.403-.365 2.257z" fill="#4D809E"/></g><mask id="g" maskUnits="userSpaceOnUse" x="0" y="0" width="189" height="23"><path d="M.647 22.315H189V.874H.647v21.44z" fill="#4D809E"/></mask><g mask="url(#g)"><path d="M189 5.06v1.115h-6.598v4.33h5.481v1.123h-5.481v5.205H189v1.345h-9.824V5.06H189z" fill="#4D809E"/></g></svg>