<svg width="126" height="26" viewBox="0 0 126 26" fill="none" xmlns="http://www.w3.org/2000/svg">
<path d="M43.5796 19.1782V22.0629H31.6287V19.1782H35.9214V7.63934H31.6287V4.75464H43.5796V7.63934H39.2869V19.1782H43.5796ZM23.2837 4.75464H19.9869L17.6173 18.457H17.5829L14.8356 5.75055C14.6639 4.892 14.3892 4.68595 13.565 4.68595H11.7449C10.955 4.68595 10.6459 4.892 10.4742 5.75055L7.72688 18.457H7.6582L5.32296 4.75464H1.78577L5.1856 21.2043C5.32296 21.9255 5.5977 22.0972 6.38755 22.0972H8.72279C9.51265 22.0972 9.78738 21.9255 9.92475 21.17L12.5004 9.2534H12.5691L15.1447 21.17C15.3164 21.9255 15.5568 22.0972 16.3466 22.0972H18.6475C19.4717 22.0972 19.7121 21.9255 19.8495 21.2043L23.2837 4.75464ZM25.0694 25.9435H0V0.874023H25.0694V25.9435ZM66.4168 17.6328C66.4294 19.1144 66.5326 20.5939 66.7259 22.0629H70.1601C70.057 21.1356 69.954 19.5903 69.8853 17.3924C69.8167 15.1945 68.9925 14.439 67.2067 14.0956V14.0269C69.1985 13.7178 70.057 12.7563 70.057 9.69985C70.057 7.15856 69.645 6.23133 68.9581 5.5445C68.2713 4.85766 67.5501 4.78898 66.2108 4.78898H55.6679V22.0629H59.2394V15.3319H64.1846C65.2149 15.3319 65.627 15.4006 65.9017 15.6753C66.1764 15.95 66.3825 16.2591 66.4168 17.6328ZM59.2394 12.5159V7.70803H64.9058C65.6957 7.70803 65.936 7.77671 66.0734 7.91408C66.2108 8.05144 66.5542 8.53223 66.5542 10.0433C66.5542 11.5543 66.3138 12.0351 66.0391 12.2755C65.7643 12.5159 65.6613 12.5159 64.8715 12.5159H59.2394ZM75.2083 25.9435H50.1389V0.874023H75.2083V25.9435ZM105.807 4.75464V22.0629H114.323C116.762 22.0629 118.101 21.7194 119.166 20.7922C120.23 19.865 120.986 17.7015 120.986 13.4431C120.986 9.18472 120.402 7.15856 119.166 6.09397C117.929 5.02937 116.796 4.82332 114.323 4.82332H105.807V4.75464ZM117.449 13.4088C117.449 17.1177 117.14 18.0792 116.487 18.5944C115.835 19.1095 115.354 19.1095 114.083 19.1095H109.378V7.70803H114.083C115.388 7.70803 115.938 7.77671 116.487 8.22315C117.036 8.66959 117.449 9.69985 117.449 13.4431V13.4088ZM125.347 25.9435H100.278V0.874023H125.347V25.9435ZM79.8101 7.63934V4.75464H94.5427V10.318H91.4519V7.63934H85.4765V11.7604H90.2156V14.542H85.4765V19.1782H91.5893V16.1561H94.7144V22.0629H79.8101V19.1782H82.1453V7.63934H79.8101Z" fill="#4D809E"/>
</svg>
